<?xml version="1.0" encoding="UTF-8"?>
<svg version="1.1" xmlns="http://www.w3.org/2000/svg" width="500" height="500">
<path d="M0 0 C165 0 330 0 500 0 C500 165 500 330 500 500 C335 500 170 500 0 500 C0 335 0 170 0 0 Z " fill="#B1BAC8" transform="translate(0,0)"/>
<path d="M0 0 C8.21514633 -0.31677942 15.69795303 0.75813049 22.3984375 5.84375 C28.07315018 11.21362274 29.80131702 16.69495733 30.3828125 24.41015625 C30.08436193 29.73003769 27.31862821 33.10324679 23.66015625 36.76171875 C21.2598651 38.87325307 19.27244571 40.1800181 16.2265625 41.1953125 C15.7315625 42.1853125 15.7315625 42.1853125 15.2265625 43.1953125 C13.31340632 43.46382565 11.39819062 43.72284923 9.4765625 43.921875 C2.16786848 44.81008434 -5.58867763 46.7636593 -10.7734375 52.1953125 C-11.3715625 52.3396875 -11.9696875 52.4840625 -12.5859375 52.6328125 C-15.77673245 53.45330263 -18.07524381 55.34030434 -20.7734375 57.1953125 C-21.8871875 57.6903125 -21.8871875 57.6903125 -23.0234375 58.1953125 C-25.30813107 59.50085168 -25.63174052 60.8447599 -26.7734375 63.1953125 C-27.98 64.3709375 -27.98 64.3709375 -29.2109375 65.5703125 C-31.89105362 68.31579731 -33.2180873 70.71429062 -34.7734375 74.1953125 C-35.24523437 75.13697266 -35.24523437 75.13697266 -35.7265625 76.09765625 C-36.81399948 78.2765878 -37.8359959 80.47490987 -38.8359375 82.6953125 C-39.34833984 83.82453125 -39.34833984 83.82453125 -39.87109375 84.9765625 C-41.40655516 88.75206934 -41.90082037 92.03637644 -41.90625 96.109375 C-41.90753906 97.03492188 -41.90882813 97.96046875 -41.91015625 98.9140625 C-41.90435547 100.35265625 -41.90435547 100.35265625 -41.8984375 101.8203125 C-41.90230469 102.78710938 -41.90617187 103.75390625 -41.91015625 104.75 C-41.90822266 106.13445312 -41.90822266 106.13445312 -41.90625 107.546875 C-41.90455811 108.81265381 -41.90455811 108.81265381 -41.90283203 110.10400391 C-41.906598 112.25492916 -41.906598 112.25492916 -40.7734375 114.1953125 C-38.44965445 112.32795912 -38.44965445 112.32795912 -38.68359375 109.32421875 C-38.73386719 108.14730469 -38.78414062 106.97039062 -38.8359375 105.7578125 C-38.94614353 99.06279622 -37.92774836 93.50197382 -35.7734375 87.1953125 C-35.2784375 85.7103125 -35.2784375 85.7103125 -34.7734375 84.1953125 C-34.1134375 84.1953125 -33.4534375 84.1953125 -32.7734375 84.1953125 C-32.6909375 83.5971875 -32.6084375 82.9990625 -32.5234375 82.3828125 C-31.55766971 79.56598977 -30.28475183 78.71732118 -27.7734375 77.1953125 C-27.1134375 77.1953125 -26.4534375 77.1953125 -25.7734375 77.1953125 C-25.7734375 76.5353125 -25.7734375 75.8753125 -25.7734375 75.1953125 C-20.83340864 73.0590838 -16.53644547 73.0548572 -11.26171875 73.22265625 C-8.63987861 73.32067299 -8.63987861 73.32067299 -5.7734375 72.1953125 C-5.6909375 72.7521875 -5.6084375 73.3090625 -5.5234375 73.8828125 C-4.90535295 76.34862732 -4.90535295 76.34862732 -2.8359375 78.2578125 C0.19537319 82.57513378 1.39251781 86.90737293 1.2265625 92.1953125 C-0.26520937 95.14333786 -2.09879199 97.25553246 -4.7734375 99.1953125 C-5.4334375 99.1953125 -6.0934375 99.1953125 -6.7734375 99.1953125 C-9.03876272 104.85862555 -9.9762494 109.90693835 -7.86328125 115.68359375 C-2.28932117 127.49465385 5.34551747 133.3682462 17.30859375 138.5234375 C31.45237386 143.38055183 49.17201723 143.18645116 63.2265625 138.1953125 C79.72366922 132.3911602 79.72366922 132.3911602 87.4765625 135.8828125 C91.96398095 138.36896574 94.59131149 141.28955948 96.2265625 146.1953125 C97.26514305 156.07666464 95.17727204 161.83424214 89.41015625 169.66015625 C83.87158055 176.09045255 76.53156806 181.50903938 68.26171875 183.66015625 C66.13586714 184.16813776 66.13586714 184.16813776 63.859375 185.19140625 C45.44081564 192.21450678 22.03507842 188.82055383 4.4296875 181.2109375 C1.28746065 179.75798772 -1.61960255 178.186953 -4.4609375 176.1953125 C-5.20214844 175.68097656 -5.94335938 175.16664063 -6.70703125 174.63671875 C-7.38894531 174.16105469 -8.07085937 173.68539062 -8.7734375 173.1953125 C-9.8459375 172.5146875 -10.9184375 171.8340625 -12.0234375 171.1328125 C-14.96981109 169.05695838 -17.28935284 166.80360139 -19.7734375 164.1953125 C-20.87498457 163.08853243 -21.97918194 161.98438419 -23.0859375 160.8828125 C-23.9728125 159.9959375 -24.8596875 159.1090625 -25.7734375 158.1953125 C-25.6909375 159.0409375 -25.6084375 159.8865625 -25.5234375 160.7578125 C-25.92934135 166.33899044 -28.65491893 169.87075103 -32.1484375 174.0078125 C-37.85794519 178.76573557 -43.68801234 178.4473632 -50.7734375 178.1953125 C-51.1034375 177.5353125 -51.4334375 176.8753125 -51.7734375 176.1953125 C-52.3715625 176.1128125 -52.9696875 176.0303125 -53.5859375 175.9453125 C-56.39112474 174.98353402 -57.09857823 173.43875683 -58.58984375 170.97265625 C-59.90151672 169.00298231 -61.39550693 167.41183793 -63.0234375 165.6953125 C-82.9705306 143.14827778 -86.09541381 113.94621871 -84.7734375 85.1953125 C-83.70160168 69.4867678 -76.76252484 53.07092832 -67.7734375 40.1953125 C-67.02900391 39.12023437 -67.02900391 39.12023437 -66.26953125 38.0234375 C-51.7225114 18.25351173 -31.15769402 4.7544684 -6.8359375 0.5078125 C-4.55979848 0.29413414 -2.2806098 0.16060632 0 0 Z " fill="#418ABA" transform="translate(215.7734375,139.8046875)"/>
<path d="M0 0 C2.97141626 2.97141626 3.30981015 6.09246751 4.015625 10.15625 C3.99301288 14.27165584 2.40590694 16.03429378 -0.421875 18.85546875 C-2 20 -2 20 -4 20 C-6.26532522 25.66331305 -7.2028119 30.71162585 -5.08984375 36.48828125 C0.48411633 48.29934135 8.11895497 54.1729337 20.08203125 59.328125 C34.22581136 64.18523933 51.94545473 63.99113866 66 59 C82.49710672 53.1958477 82.49710672 53.1958477 90.25 56.6875 C94.73741845 59.17365324 97.36474899 62.09424698 99 67 C100.03858055 76.88135214 97.95070954 82.63892964 92.18359375 90.46484375 C86.64501805 96.89514005 79.30500556 102.31372688 71.03515625 104.46484375 C68.90930464 104.97282526 68.90930464 104.97282526 66.6328125 105.99609375 C48.21425314 113.01919428 24.80851592 109.62524133 7.203125 102.015625 C4.06089815 100.56267522 1.15383495 98.9916405 -1.6875 97 C-2.42871094 96.48566406 -3.16992188 95.97132813 -3.93359375 95.44140625 C-4.61550781 94.96574219 -5.29742187 94.49007812 -6 94 C-7.0725 93.319375 -8.145 92.63875 -9.25 91.9375 C-12.23167516 89.83677432 -14.50538004 87.66866321 -17 85 C-17.6703125 84.35804688 -18.340625 83.71609375 -19.03125 83.0546875 C-27.29131562 74.70975819 -34.31149363 63.71957863 -34.49243164 51.65844727 C-34.41847575 48.83661904 -34.24949974 46.0245267 -34.07275391 43.20751953 C-33.943611 39.2890292 -34.3229432 35.40449855 -34.625 31.5 C-35.03921202 25.27955288 -35.08157547 19.93249008 -33 14 C-31.421875 12.27734375 -31.421875 12.27734375 -30 11 C-30.66 10.67 -31.32 10.34 -32 10 C-23.07282863 -1.87268477 -23.07282863 -1.87268477 -16.0625 -4.8125 C-9.62603632 -5.39763306 -5.23160879 -3.38515863 0 0 Z " fill="#33517B" transform="translate(213,219)"/>
<path d="M0 0 C9.88201491 3.62954924 16.19583729 11.98785505 20.8125 21.125 C28.77429081 40.11494701 26.87309107 59.49504628 19.24609375 78.234375 C17.78850064 81.46940924 16.17123044 84.19017237 14 87 C13.46246094 87.71800781 12.92492187 88.43601562 12.37109375 89.17578125 C6.37832331 97.08416729 -0.82150195 105.76107533 -10 110 C-10.74636719 110.39058594 -11.49273437 110.78117187 -12.26171875 111.18359375 C-22.85952741 116.66168808 -31.92659191 119.39308555 -44 118 C-48.09150838 115.93460208 -50.92225916 113.83215943 -53.25 109.875 C-54.66848909 104.4374585 -53.88461138 99.70369599 -51.3125 94.75 C-46.94637488 89.55785121 -42.75013101 86.81704699 -36.75 83.75 C-25.18603083 77.64496269 -17.71203517 69.7739013 -12.625 57.75 C-10.47975551 44.87853307 -12.64744807 35.1760221 -18.75 23.875 C-21.15814718 19.17799466 -22.08311746 15.22503884 -21 10 C-19.3125 6.6875 -19.3125 6.6875 -17 4 C-16.34 3.21625 -15.68 2.4325 -15 1.625 C-10.09286414 -1.03303193 -5.43922977 -0.86919027 0 0 Z " fill="#E3E5E8" transform="translate(335,254)"/>
<path d="M0 0 C0.28875 0.598125 0.5775 1.19625 0.875 1.8125 C2.04742026 4.19327792 2.04742026 4.19327792 4 7 C-1.78362573 5.11695906 -1.78362573 5.11695906 -4.3125 3.75 C-8.47979105 2.58703506 -11.9788251 3.57903838 -16 5 C-20.20778346 7.61817637 -22.38038708 10.84475192 -25 15 C-25.66 15.66 -26.32 16.32 -27 17 C-27 18.32 -27 19.64 -27 21 C-27.66 21 -28.32 21 -29 21 C-30.00195779 28.46706973 -29.94391301 35.61625871 -29.5 43.125 C-29.10140641 49.91805253 -28.90238207 56.26901948 -30 63 C-39.45148319 48.82277522 -39.82802662 31.30040054 -36.6875 15.125 C-35.71911227 10.872292 -34.40125465 7.6456023 -32 4 C-31.34 4.66 -30.68 5.32 -30 6 C-30.27714844 6.60328125 -30.55429688 7.2065625 -30.83984375 7.828125 C-31.38318359 9.02695313 -31.38318359 9.02695313 -31.9375 10.25 C-32.29714844 11.03890625 -32.65679687 11.8278125 -33.02734375 12.640625 C-34.60800681 16.47484382 -35.12728705 19.76918685 -35.1328125 23.9140625 C-35.13474609 25.30238281 -35.13474609 25.30238281 -35.13671875 26.71875 C-35.13285156 27.6778125 -35.12898437 28.636875 -35.125 29.625 C-35.12886719 30.59179688 -35.13273438 31.55859375 -35.13671875 32.5546875 C-35.13542969 33.47765625 -35.13414062 34.400625 -35.1328125 35.3515625 C-35.13168457 36.19541504 -35.13055664 37.03926758 -35.12939453 37.90869141 C-35.1331605 40.05961666 -35.1331605 40.05961666 -34 42 C-31.67621695 40.13264662 -31.67621695 40.13264662 -31.91015625 37.12890625 C-31.98556641 35.36353516 -31.98556641 35.36353516 -32.0625 33.5625 C-32.17270603 26.86748372 -31.15431086 21.30666132 -29 15 C-28.67 14.01 -28.34 13.02 -28 12 C-27.34 12 -26.68 12 -26 12 C-25.9175 11.401875 -25.835 10.80375 -25.75 10.1875 C-24.78423221 7.37067727 -23.51131433 6.52200868 -21 5 C-20.34 5 -19.68 5 -19 5 C-19 4.34 -19 3.68 -19 3 C-14.03120454 0.85133169 -9.69648076 0.8606297 -4.390625 1.02734375 C-1.98374302 1.17393594 -1.98374302 1.17393594 0 0 Z " fill="#4C5D74" transform="translate(209,212)"/>
<path d="M0 0 C0.28875 0.598125 0.5775 1.19625 0.875 1.8125 C2.04742026 4.19327792 2.04742026 4.19327792 4 7 C-1.78362573 5.11695906 -1.78362573 5.11695906 -4.3125 3.75 C-8.47979105 2.58703506 -11.9788251 3.57903838 -16 5 C-20.20778346 7.61817637 -22.38038708 10.84475192 -25 15 C-25.66 15.66 -26.32 16.32 -27 17 C-27 18.32 -27 19.64 -27 21 C-27.66 21 -28.32 21 -29 21 C-29.85373239 28.02804699 -30.12109311 34.92278069 -30 42 C-30.33 42 -30.66 42 -31 42 C-32.85795515 31.08451352 -31.49708656 22.49125969 -28 12 C-27.34 12 -26.68 12 -26 12 C-25.9175 11.401875 -25.835 10.80375 -25.75 10.1875 C-24.78423221 7.37067727 -23.51131433 6.52200868 -21 5 C-20.34 5 -19.68 5 -19 5 C-19 4.34 -19 3.68 -19 3 C-14.03120454 0.85133169 -9.69648076 0.8606297 -4.390625 1.02734375 C-1.98374302 1.17393594 -1.98374302 1.17393594 0 0 Z " fill="#7493AE" transform="translate(209,212)"/>
<path d="M0 0 C0.66 0.99 1.32 1.98 2 3 C-1.49163169 9.22622818 -4.91761456 14.63920485 -12 17 C-12.33 17.66 -12.66 18.32 -13 19 C-14.91315618 19.26851315 -16.82837188 19.52753673 -18.75 19.7265625 C-24.90944691 20.4751064 -30.38516815 22.4265354 -36 25 C-36.33 23.68 -36.66 22.36 -37 21 C-34.03 20.67 -31.06 20.34 -28 20 C-28 19.34 -28 18.68 -28 18 C-27.21496094 17.90203125 -26.42992187 17.8040625 -25.62109375 17.703125 C-19.18856167 16.78757442 -14.31088271 15.80998107 -9 12 C-8.34 11.01 -7.68 10.02 -7 9 C-6.360625 8.7525 -5.72125 8.505 -5.0625 8.25 C-1.82137101 6.2856794 -1.29582755 3.49873438 0 0 Z " fill="#5A7D9E" transform="translate(244,164)"/>
<path d="M0 0 C0.66 0.66 1.32 1.32 2 2 C1.72285156 2.60328125 1.44570312 3.2065625 1.16015625 3.828125 C0.61681641 5.02695313 0.61681641 5.02695313 0.0625 6.25 C-0.29714844 7.03890625 -0.65679687 7.8278125 -1.02734375 8.640625 C-2.52377443 12.2705211 -3.12481613 15.37702911 -3.0625 19.30078125 C-3.05476562 20.11353516 -3.04703125 20.92628906 -3.0390625 21.76367188 C-3.01320039 23.45117464 -2.98716123 25.13867469 -2.9609375 26.82617188 C-2.91501066 31.67528092 -3.17414488 36.2190731 -4 41 C-6.61012842 37.08480738 -6.34220193 33.73145271 -6.3125 29.1875 C-6.30730347 27.917854 -6.30730347 27.917854 -6.30200195 26.62255859 C-6.14247072 17.2816082 -5.24955299 7.96990958 0 0 Z " fill="#506A87" transform="translate(177,216)"/>
<path d="M0 0 C0.66 0 1.32 0 2 0 C2.875 2.0625 2.875 2.0625 3 5 C1.32045192 7.64788687 -0.64397037 9.9302727 -3 12 C-3.66 12 -4.32 12 -5 12 C-7.27141454 17.39460953 -7.20413361 22.26157749 -7 28 C-7.66 27.67 -8.32 27.34 -9 27 C-9.79161431 13.99993387 -9.79161431 13.99993387 -6.625 10 C-5.75875 9.34 -4.8925 8.68 -4 8 C-2.79950593 4.89992799 -2.79950593 4.89992799 -2 2 C-1.34 1.34 -0.68 0.68 0 0 Z " fill="#627D9B" transform="translate(214,227)"/>
<path d="M0 0 C4 5 4 5 4.5 8.375 C3.58203418 15.03025222 0.08827685 19.75976929 -5 24 C-8.87202684 25.73846103 -10.98590612 26.19127947 -15 25 C-13.783125 24.5875 -12.56625 24.175 -11.3125 23.75 C-7.62881729 22.36535331 -4.85784464 20.77124329 -2 18 C-1.67 17.01 -1.34 16.02 -1 15 C-0.34 15 0.32 15 1 15 C0.67 10.05 0.34 5.1 0 0 Z " fill="#577C9D" transform="translate(186,292)"/>
<path d="M0 0 C0.66 0 1.32 0 2 0 C2.33 1.32 2.66 2.64 3 4 C2.01 4.495 2.01 4.495 1 5 C1 6.32 1 7.64 1 9 C0.34 9 -0.32 9 -1 9 C-1.85373239 16.02804699 -2.12109311 22.92278069 -2 30 C-2.33 30 -2.66 30 -3 30 C-4.85795515 19.08451352 -3.49708656 10.49125969 0 0 Z " fill="#5581A1" transform="translate(181,224)"/>
<path d="M0 0 C0.33 0 0.66 0 1 0 C1.68184286 8.10635405 0.64573617 13.28027447 -4 20 C-4.33 19.01 -4.66 18.02 -5 17 C-4.54625 16.13375 -4.0925 15.2675 -3.625 14.375 C-1.86692 10.72360308 -1.49550659 7.93709219 -1.2109375 3.953125 C-1 2 -1 2 0 0 Z " fill="#313E59" transform="translate(311,287)"/>
<path d="M0 0 C0.66 0.66 1.32 1.32 2 2 C1.72285156 2.60328125 1.44570312 3.2065625 1.16015625 3.828125 C0.61681641 5.02695313 0.61681641 5.02695313 0.0625 6.25 C-0.29714844 7.03890625 -0.65679687 7.8278125 -1.02734375 8.640625 C-2.68466911 12.66080378 -3.31841285 16.71573789 -4 21 C-4.33 21 -4.66 21 -5 21 C-5.49067456 13.51721294 -4.04453537 7.84714782 -1 1 C-0.67 0.67 -0.34 0.34 0 0 Z " fill="#5E7B98" transform="translate(177,216)"/>
<path d="M0 0 C0.66 0.33 1.32 0.66 2 1 C1.278125 1.556875 0.55625 2.11375 -0.1875 2.6875 C-2.97457299 4.97909334 -5.48641528 7.41459857 -8 10 C-8.3125 7.75 -8.3125 7.75 -8 5 C-5.39110249 2.46161323 -3.45779049 1.15259683 0 0 Z " fill="#5990B3" transform="translate(191,216)"/>
<path d="M0 0 C-0.35049575 3.24208567 -0.56221181 4.61527704 -3.0625 6.8125 C-3.701875 7.204375 -4.34125 7.59625 -5 8 C-5.36625971 3.48279689 -5.36625971 3.48279689 -3.625 1.1875 C-2 0 -2 0 0 0 Z " fill="#4179A5" transform="translate(216,227)"/>
<path d="M0 0 C2 4 2 4 1.125 7.25 C0.75375 8.1575 0.3825 9.065 0 10 C0.66 10 1.32 10 2 10 C1.34 11.32 0.68 12.64 0 14 C-0.33 14 -0.66 14 -1 14 C-0.67 9.38 -0.34 4.76 0 0 Z " fill="#549FC7" transform="translate(132,218)"/>
<path d="M0 0 C0.28875 0.598125 0.5775 1.19625 0.875 1.8125 C2.04742026 4.19327792 2.04742026 4.19327792 4 7 C0.27566618 5.7874262 -3.37802806 4.49140021 -7 3 C-7 2.67 -7 2.34 -7 2 C-4.69 1.34 -2.38 0.68 0 0 Z " fill="#6691B1" transform="translate(209,212)"/>
<path d="M0 0 C0.66 0.99 1.32 1.98 2 3 C1.21718695 4.33855056 0.42348123 5.67073644 -0.375 7 C-0.81585938 7.7425 -1.25671875 8.485 -1.7109375 9.25 C-2.13632813 9.8275 -2.56171875 10.405 -3 11 C-3.66 11 -4.32 11 -5 11 C-4.731875 10.484375 -4.46375 9.96875 -4.1875 9.4375 C-2.67650593 6.33598585 -1.34427274 3.17737194 0 0 Z " fill="#778BA2" transform="translate(244,164)"/>
<path d="M0 0 C1.65322266 0.01740234 1.65322266 0.01740234 3.33984375 0.03515625 C4.99693359 0.04869141 4.99693359 0.04869141 6.6875 0.0625 C7.54214844 0.07410156 8.39679688 0.08570313 9.27734375 0.09765625 C8.94734375 0.75765625 8.61734375 1.41765625 8.27734375 2.09765625 C6.99859375 2.05640625 5.71984375 2.01515625 4.40234375 1.97265625 C2.25862883 1.85552752 2.25862883 1.85552752 0.27734375 2.09765625 C-0.38265625 2.75765625 -1.04265625 3.41765625 -1.72265625 4.09765625 C-1.72265625 3.43765625 -1.72265625 2.77765625 -1.72265625 2.09765625 C-2.38265625 1.76765625 -3.04265625 1.43765625 -3.72265625 1.09765625 C-2.72265625 0.09765625 -2.72265625 0.09765625 0 0 Z " fill="#51A0CB" transform="translate(215.72265625,139.90234375)"/>
<path d="M0 0 C-1.5830577 4.2742558 -4.50568404 6.26531794 -8 9 C-6.68994234 5.06982701 -4.75047804 0 0 0 Z " fill="#70849D" transform="translate(191,199)"/>
<path d="M0 0 C-0.25 1.875 -0.25 1.875 -1 4 C-2.9375 5.125 -2.9375 5.125 -5 6 C-5.66 6.66 -6.32 7.32 -7 8 C-7 5 -7 5 -4.625 2.3125 C-2 0 -2 0 0 0 Z " fill="#5BAFD6" transform="translate(169,159)"/>
<path d="M0 0 C-2 3 -2 3 -3.875 3.625 C-4.57625 3.74875 -5.2775 3.8725 -6 4 C-7.11375 4.2784375 -7.11375 4.2784375 -8.25 4.5625 C-8.8275 4.706875 -9.405 4.85125 -10 5 C-6.58244111 0.23982869 -6.58244111 0.23982869 -3.875 -0.875 C-2 -1 -2 -1 0 0 Z " fill="#6C839D" transform="translate(207,189)"/>
<path d="M0 0 C3 1 3 1 4.25 2.75 C5.17574966 5.52724898 4.77341204 7.21571665 4 10 C2.26337666 6.77484237 1.1094072 3.48670834 0 0 Z " fill="#7C99B4" transform="translate(213,219)"/>
<path d="M0 0 C0 0.66 0 1.32 0 2 C-3.3 2.33 -6.6 2.66 -10 3 C-9.01 2.67 -8.02 2.34 -7 2 C-7 1.34 -7 0.68 -7 0 C-3.86650268 -1.04449911 -3.01031744 -0.93423645 0 0 Z " fill="#4E7AA1" transform="translate(223,182)"/>
<path d="M0 0 C0.33 0.99 0.66 1.98 1 3 C-0.65 4.65 -2.3 6.3 -4 8 C-2.25 2.25 -2.25 2.25 0 0 Z " fill="#6D809A" transform="translate(182,208)"/>
<path d="M0 0 C0.66 0.33 1.32 0.66 2 1 C0.02 1.99 0.02 1.99 -2 3 C-2 3.66 -2 4.32 -2 5 C-2.99 5.33 -3.98 5.66 -5 6 C-5.33 5.01 -5.66 4.02 -6 3 C-4.03533587 1.93224776 -2.03144641 0.93446535 0 0 Z " fill="#56ACD6" transform="translate(187,147)"/>
</svg>
